<?xml version="1.0" standalone="no"?>
<!DOCTYPE svg PUBLIC "-//W3C//DTD SVG 20010904//EN"
 "http://www.w3.org/TR/2001/REC-SVG-20010904/DTD/svg10.dtd">
<svg version="1.0" xmlns="http://www.w3.org/2000/svg"
 width="512.000000pt" height="512.000000pt" viewBox="0 0 512.000000 512.000000"
 preserveAspectRatio="xMidYMid meet">

<g transform="translate(0.000000,512.000000) scale(0.100000,-0.100000)"
fill="#ff3030" stroke="none">
<path d="M2390 4794 c-457 -42 -875 -206 -1223 -481 -93 -73 -287 -267 -360
-360 -243 -308 -402 -676 -463 -1073 -25 -159 -25 -481 0 -640 76 -490 288
-913 630 -1256 138 -138 220 -204 373 -305 262 -170 567 -285 893 -335 159
-25 481 -25 640 0 493 76 914 288 1261 635 347 347 559 768 635 1261 25 159
25 481 0 640 -50 326 -165 631 -335 893 -101 153 -167 235 -305 373 -341 340
-768 555 -1246 629 -103 15 -410 27 -500 19z m277 -1057 c39 -21 88 -70 111
-111 16 -28 17 -85 17 -682 l0 -651 -30 -49 c-44 -70 -108 -107 -195 -112 -57
-4 -74 0 -118 22 -57 29 -106 86 -123 145 -7 24 -9 248 -7 666 3 698 -1 655
70 725 52 53 102 71 178 67 36 -2 79 -11 97 -20z m8 -1892 c60 -29 121 -97
141 -157 59 -180 -71 -361 -260 -360 -79 0 -143 29 -199 92 -50 55 -67 103
-67 187 0 106 73 210 174 247 55 20 159 16 211 -9z"/>
</g>
</svg>
